<?xml version="1.0" encoding="UTF-8"?>
<svg id="Layer_1" data-name="Layer 1" xmlns="http://www.w3.org/2000/svg" xmlns:xlink="http://www.w3.org/1999/xlink" viewBox="0 0 764.74 310.57">
  <defs>
    <style>
      .cls-1, .cls-2 {
        fill: #333;
      }

      .cls-3 {
        filter: url(#drop-shadow-2);
      }

      .cls-4 {
        filter: url(#drop-shadow-5);
      }

      .cls-5 {
        stroke: #333;
        stroke-width: 4px;
      }

      .cls-5, .cls-6 {
        fill: none;
        stroke-miterlimit: 10;
      }

      .cls-7 {
        filter: url(#drop-shadow-1);
      }

      .cls-6 {
        filter: url(#drop-shadow-4);
        stroke: #181818;
        stroke-width: 25px;
      }

      .cls-2 {
        filter: url(#drop-shadow-3);
      }
    </style>
    <filter id="drop-shadow-1" x="318.1" y="-8.17" width="446.64" height="340.56" filterUnits="userSpaceOnUse">
      <feOffset dx="7" dy="7"/>
      <feGaussianBlur result="blur" stdDeviation="5"/>
      <feFlood flood-color="#231f20" flood-opacity=".75"/>
      <feComposite in2="blur" operator="in"/>
      <feComposite in="SourceGraphic"/>
    </filter>
    <filter id="drop-shadow-2" x="309.94" y="7.91" width="290.16" height="163.44" filterUnits="userSpaceOnUse">
      <feOffset dx="7" dy="7"/>
      <feGaussianBlur result="blur-2" stdDeviation="5"/>
      <feFlood flood-color="#231f20" flood-opacity=".75"/>
      <feComposite in2="blur-2" operator="in"/>
      <feComposite in="SourceGraphic"/>
    </filter>
    <filter id="drop-shadow-3" x="313.06" y="18.71" width="451.68" height="169.68" filterUnits="userSpaceOnUse">
      <feOffset dx="7" dy="7"/>
      <feGaussianBlur result="blur-3" stdDeviation="5"/>
      <feFlood flood-color="#231f20" flood-opacity=".75"/>
      <feComposite in2="blur-3" operator="in"/>
      <feComposite in="SourceGraphic"/>
    </filter>
    <filter id="drop-shadow-4" x="441.46" y="63.35" width="206.16" height="206.16" filterUnits="userSpaceOnUse">
      <feOffset dx="7" dy="7"/>
      <feGaussianBlur result="blur-4" stdDeviation="5"/>
      <feFlood flood-color="#231f20" flood-opacity=".75"/>
      <feComposite in2="blur-4" operator="in"/>
      <feComposite in="SourceGraphic"/>
    </filter>
    <filter id="drop-shadow-5" x="290.98" y="138.23" width="59.52" height="59.52" filterUnits="userSpaceOnUse">
      <feOffset dx="7" dy="7"/>
      <feGaussianBlur result="blur-5" stdDeviation="5"/>
      <feFlood flood-color="#231f20" flood-opacity=".75"/>
      <feComposite in2="blur-5" operator="in"/>
      <feComposite in="SourceGraphic"/>
    </filter>
  </defs>
  <g class="cls-7">
    <path d="M326.1,156.99c8.99-21.44,33.11-70.91,87.47-109.91C464.7,10.39,515.68,2.26,538.87,0c20.27,1.26,78.58,7.54,132.47,52.25,46.49,38.57,64.74,85.05,71.29,105.01-6.44,18.76-26.48,69.17-79.11,108.35-52.42,39.03-106.22,43.87-126.06,44.7-22.2-1.79-51.33-7.01-82.49-21.17-80.93-36.77-117.5-107.46-128.87-132.15Z"/>
  </g>
  <path d="M326.1,154.34c18.07,23.28,55.33,64.24,116.11,88.46,26.09,10.4,50.2,15.2,69.76,17.37,19.75,2.19,60.92,3.88,107.94-12.19,68.51-23.42,107.84-70.67,122.72-90.72-14.67-19.4-47.36-57.07-102.69-81.07-40.54-17.58-77.1-20.82-99.64-21.01-44.56,6.86-79.81,18.67-104.28,28.6-20,8.12-45.6,18.71-74.75,40.16-15.36,11.31-27.09,22.23-35.18,30.41Z"/>
  <path class="cls-1" d="M589.16,72.3c20.01,9.45,46.93,25.15,73.01,50.96,13.88,13.74,24.6,27.45,32.81,39.62-13.64,16.54-34.72,38.19-64.93,57.23-44.82,28.25-87.87,36.97-113.07,40.06,21.19,1.99,70.78,3.74,124.55-23,45.34-22.55,71.96-54.56,84.31-71.68-11.6-14.74-28.19-32.75-50.95-49.84-32.36-24.29-63.92-36.75-85.73-43.35Z"/>
  <g>
    <path class="cls-1" d="M468.71,54.65c-10.21,3.11-21.87,7.53-34.21,13.89-22.71,11.71-39.47,25.75-50.96,37.17,2.31,4.61,6.08,10.85,12.11,17.03,4.63,4.74,9.26,8.09,13.03,10.39.74-.35,1.94-.95,3.36-1.77,18.3-10.63,21.66-29.56,32.25-47.87,4.36-7.53,11.72-18.04,24.42-28.83Z"/>
    <path class="cls-1" d="M362.1,135.45c-1.08-.08-8.2-.52-13.78,4.96-4.88,4.79-5.2,10.78-5.24,12.07,12.11,13.46,27.21,28.12,45.76,42.4,37.09,28.55,73.66,44.56,101.06,53.79-22.47-11.37-51.94-29.41-81.23-57.56-20.33-19.53-35.48-39.04-46.58-55.66Z"/>
  </g>
  <g>
    <polyline class="cls-1" points="536.53 120.05 532.72 158.01 536.53 195.86 541.21 195.86 545.02 158.01 541.21 120.05"/>
    <polygon class="cls-1" points="576.78 155.57 538.82 151.76 500.97 155.57 500.97 160.25 538.82 164.06 576.78 160.25 576.78 155.57"/>
    <polygon class="cls-1" points="567.33 183.1 543.19 153.57 513.72 129.5 510.41 132.81 534.48 162.27 564.02 186.41 567.33 183.1"/>
    <polygon class="cls-1" points="513.72 186.37 543.26 162.22 567.33 132.76 564.02 129.45 534.56 153.52 510.41 183.06 513.72 186.37"/>
    <g>
      <circle class="cls-1" cx="527.28" cy="129.33" r="4.37"/>
      <circle class="cls-1" cx="550.94" cy="186.49" r="4.37"/>
      <circle class="cls-1" cx="510.99" cy="145.84" r="4.37"/>
      <circle class="cls-1" cx="550.92" cy="129.32" r="4.37"/>
      <circle class="cls-1" cx="566.8" cy="146.49" r="4.37"/>
      <circle class="cls-1" cx="510.95" cy="169.53" r="4.37"/>
      <circle class="cls-1" cx="527.69" cy="186.19" r="4.37"/>
      <circle class="cls-1" cx="567.43" cy="169.21" r="4.37"/>
      <g>
        <circle class="cls-1" cx="538.87" cy="114.36" r="6.15"/>
        <circle class="cls-1" cx="538.87" cy="201.55" r="6.15"/>
        <circle class="cls-1" cx="508.75" cy="127.08" r="6.15"/>
        <circle class="cls-1" cx="569.66" cy="127.08" r="6.15"/>
        <circle class="cls-1" cx="581.09" cy="158.01" r="6.15"/>
        <circle class="cls-1" cx="495.93" cy="157.91" r="6.15"/>
        <circle class="cls-1" cx="508.75" cy="188.64" r="6.15"/>
        <circle class="cls-1" cx="569.66" cy="187.93" r="6.15"/>
      </g>
    </g>
  </g>
  <ellipse class="cls-5" cx="538.87" cy="157.97" rx="42.78" ry="43.58"/>
  <path class="cls-3" d="M318.09,148.32c3.32-9.89,8.15-21.19,15.28-32.91,2.52-4.14,5.1-7.96,7.67-11.47,1.42-2.07,4.96-6.61,11.33-9.46,5.38-2.4,10.22-2.45,12.69-2.31,1.61.09,6.17.36,10.56,2.67,6.06,3.18,8.5,8.51,11.64,14.06,6.68,11.79,14.1,24.88,21.47,24.78,4.34-.05,7.96-5.53,15.03-16.48,6.18-9.58,7.61-13.35,12.26-22.37,3.79-7.36,9.93-17.51,19.99-28.71,4.81-6.48,11.48-14.23,20.44-21.88,10.83-9.24,21.39-15.25,29.62-19.13,7.48-3.53,20.64-8.57,37.72-9.12,14.81-.48,26.72,2.61,34.14,5.17.02.76-.07,2.44-1.15,4.03-1.85,2.69-5.71,2.88-6.84,2.97-5.81.48-28.69,4.56-60.73,10.44-5.94,2.53-14.26,6.73-22.97,13.63-8.2,6.49-13.44,12.48-19.23,19.93-6.03,7.74-12.31,16.63-18.47,26.71-7.66,12.53-13.64,24.46-18.32,35.2-1.76,2.39-4.68,5.79-9.11,8.84-4.24,2.92-8.26,4.44-11.06,5.25-2,.15-5.16.11-8.74-1.12-5.92-2.04-9.3-6.1-10.59-7.85-5.95-10.32-11.9-20.65-17.85-30.97-.35-.72-1.7-3.3-4.8-4.64-3.91-1.69-7.47-.06-8.01.2-2.22.61-5.62,1.84-9.12,4.42-4.38,3.23-6.66,7-7.85,9-11.22,18.89-14.57,31.59-21.38,32.02-.71.05-1.97-.01-3.62-.91Z"/>
  <path class="cls-2" d="M326.74,156.99c8.67-8.88,16.18-16.15,21.91-21.58,10.05-9.52,13.95-12.71,17.86-11.69,2.49.65,4.57,5.75,10.12,15.17,8.32,14.13,10.84,16.76,12.23,18.1,3.4,3.28,8.91,8.6,17.08,9.3,7.4.64,13.14-2.83,16.25-4.77,9.82-6.12,13.83-14.7,18.82-23.85,0,0,12.54-22.99,26.9-40.5,5.81-7.08,14.97-16.68,28.97-26.08,8.28-4.62,21.41-10.71,38.45-13.52,11.36-1.87,25.74-2.5,47.76,1.94,21.53,4.34,58.45,15.26,101.8,46.81,36.31,26.43,56.36,52.25,57.76,50.94,1.51-1.41-23.21-30.33-37.69-46.15-8-8.75-18.52-19.67-31.87-31.79-1.33-1.21-2.31-2.13-3.48-3.13-11.5-9.87-27.89-21.91-49.41-32.15-18.63-8.87-35.76-13.85-49.32-16.74-11.63-1.04-29.84-1.03-50.32,6.05-23.82,8.24-38.54,21.86-46.25,29.15-15.13,14.3-24.25,29.19-29.56,39.68-6.47,10.5-12.94,21.01-19.42,31.51-.82,1.48-4.1,6.97-11.05,9.48-.61.22-8.79,3.04-16.33-1.05-3.25-1.76-4.46-3.77-11.86-16.77-7.26-12.76-9.77-17.28-15.47-21.03-4.13-2.72-7.04-3.12-8.58-3.2-3.48-.17-7.26.95-12.64,5.07-5.61,4.29-10.29,9.78-17.86,23.07-2.83,4.96-6.43,11.66-10.22,19.86,1.81,2.63,3.63,5.25,5.44,7.88Z"/>
  <path class="cls-6" d="M612.91,159.35c0,41.66-33.77,75.43-75.43,75.43s-75.43-33.77-75.43-75.43c0-23.41,10.66-44.33,27.4-58.16,13.05-10.79,29.79-17.27,48.04-17.27,41.66,0,75.43,33.77,75.43,75.43Z"/>
  <circle class="cls-4" cx="313.7" cy="160.99" r="14.72"/>
</svg>