<?xml version="1.0" encoding="UTF-8"?>
<svg id="Calque_2" data-name="Calque 2" xmlns="http://www.w3.org/2000/svg" xmlns:xlink="http://www.w3.org/1999/xlink" viewBox="0 0 122.88 122.88">
  <defs>
    <style>
      .cls-1 {
        fill: url(#Dégradé_sans_nom_1720);
      }

      .cls-2 {
        fill: url(#Dégradé_sans_nom_1565);
      }
    </style>
    <linearGradient id="Dégradé_sans_nom_1720" data-name="Dégradé sans nom 1720" x1="106.8" y1="26.6" x2="54.7" y2="94.91" gradientUnits="userSpaceOnUse">
      <stop offset=".17" stop-color="#00d4ff"/>
      <stop offset=".34" stop-color="#3295f8"/>
      <stop offset=".51" stop-color="#5d60f3"/>
      <stop offset=".59" stop-color="#6e4cf1"/>
      <stop offset=".67" stop-color="#6749f1"/>
      <stop offset=".79" stop-color="#5540f2"/>
      <stop offset=".93" stop-color="#3832f4"/>
      <stop offset="1" stop-color="#252af6"/>
    </linearGradient>
    <linearGradient id="Dégradé_sans_nom_1565" data-name="Dégradé sans nom 1565" x1="20.66" y1="114.33" x2="63.21" y2="-2.64" gradientUnits="userSpaceOnUse">
      <stop offset="0" stop-color="#00d4ff"/>
      <stop offset=".09" stop-color="#08c9fd"/>
      <stop offset=".26" stop-color="#1fadfb"/>
      <stop offset=".47" stop-color="#447ff6"/>
      <stop offset=".68" stop-color="#6e4cf1"/>
      <stop offset=".69" stop-color="#6a4af1"/>
      <stop offset=".77" stop-color="#4c3cf3"/>
      <stop offset=".85" stop-color="#3632f4"/>
      <stop offset=".93" stop-color="#292cf5"/>
      <stop offset="1" stop-color="#252af6"/>
    </linearGradient>
  </defs>
  <g id="Obliview">
    <g id="Obliview-2" data-name="Obliview">
      <path id="Obliview-3" data-name="Obliview" class="cls-1" d="M122.88,61.44c0,33.93-27.51,61.44-61.44,61.44h-.08c-20.87-10.92-35.66-31.91-37.87-56.52,2.47,19.24,19.25,33.99,39.34,33.23,19.73-.75,35.83-16.78,36.66-36.5.65-15.47-7.91-29.02-20.65-35.6-.33-.17-.66-.34-1-.49-.66-.33-1.33-.62-2.02-.91-4.46-1.82-9.35-2.83-14.47-2.83-1.13,0-2.25.05-3.36.15-2.6.22-5.13.72-7.56,1.44-.17.05-.35.1-.51.16-.17.05-.35.1-.51.16t.03-.03s.02-.02.03-.03c.02-.02.03-.03.05-.05.04-.04.09-.09.16-.16.06-.06.13-.13.21-.2.16-.15.35-.33.58-.53,0,0,.03-.02.03-.03.23-.2.49-.43.79-.69.78-.66,1.78-1.46,2.98-2.32.97-.68,2.06-1.41,3.28-2.15.6-.36,1.25-.72,1.92-1.09.25-.13.51-.27.77-.4.39-.2.78-.4,1.19-.6.41-.19.82-.39,1.24-.58.4-.17.8-.35,1.22-.51.22-.09.43-.17.66-.26.27-.1.53-.21.8-.3.18-.07.37-.14.56-.2.4-.14.8-.28,1.22-.41.03-.02.06-.03.09-.03.53-.16,1.07-.32,1.61-.47.4-.11.79-.21,1.2-.3,1.01-.24,2.05-.45,3.12-.61.39-.06.78-.11,1.18-.16.08,0,.16-.02.23-.03.44-.05.89-.09,1.34-.13h0c4.18-.13,10.67.22,17.98,2.89,8.65,3.17,14.03,8.44,17.36,12.27,1.29,1.48,2.69,2.96,3.74,4.61,1.92,3.02,4.1,6.91,5.49,11.72,0,0,2.4,8.34,2.4,17.04Z"/>
      <path id="Obliview-4" data-name="Obliview" class="cls-2" d="M23.2,60.34c-.02.36-.03.73-.03,1.1,0,1.65.1,3.27.31,4.86,0,.02,0,.03,0,.05v.04c2.23,24.59,17.01,45.57,37.87,56.48-15.23-.02-29.16-5.58-39.89-14.78C8.19,96.72-.17,79.76,0,60.84.3,29.35,24.71,3.31,55.45.3h0c1.98-.21,3.99-.3,6.01-.3,9.64,0,18.77,2.23,26.89,6.19-3.38-.85-21.87-5.11-39.49,6.12-12.5,7.97-16.61,22.22-18.35,26.59-4.42,6.03-7.1,13.4-7.32,21.39v.04Z"/>
    </g>
  </g>
</svg>