<?xml version="1.0" encoding="UTF-8"?>
<svg id="Calque_2" data-name="Calque 2" xmlns="http://www.w3.org/2000/svg" xmlns:xlink="http://www.w3.org/1999/xlink" viewBox="0 0 537.34 122.88">
  <defs>
    <style>
      .cls-1 {
        fill: #fff;
      }

      .cls-2 {
        fill: #488cca;
      }

      .cls-3 {
        fill: url(#Dégradé_sans_nom_303);
      }

      .cls-4 {
        fill: url(#Dégradé_sans_nom_303-2);
      }
    </style>
    <linearGradient id="Dégradé_sans_nom_303" data-name="Dégradé sans nom 303" x1="90.15" y1="16.15" x2="56.35" y2="120.97" gradientUnits="userSpaceOnUse">
      <stop offset="0" stop-color="#75d1f5"/>
      <stop offset=".05" stop-color="#73cff3"/>
      <stop offset=".49" stop-color="#6cc2e9"/>
      <stop offset=".57" stop-color="#5ab2de"/>
      <stop offset=".86" stop-color="#1977b8"/>
      <stop offset="1" stop-color="#0061a9"/>
    </linearGradient>
    <linearGradient id="Dégradé_sans_nom_303-2" data-name="Dégradé sans nom 303" x1="20.66" y1="114.33" x2="63.21" y2="-2.64" xlink:href="#Dégradé_sans_nom_303"/>
  </defs>
  <g id="Obliview">
    <g id="Obliview-2" data-name="Obliview">
      <path id="Obliview-3" data-name="Obliview" class="cls-3" d="M122.88,61.44c0,33.93-27.51,61.44-61.44,61.44h-.08c-20.87-10.92-35.66-31.91-37.87-56.52,2.47,19.24,19.25,33.99,39.34,33.23,19.73-.75,35.83-16.78,36.66-36.5.65-15.47-7.91-29.02-20.65-35.6-.33-.17-.66-.34-1-.49-.66-.33-1.33-.62-2.02-.91-4.46-1.82-9.35-2.83-14.47-2.83-1.13,0-2.25.05-3.36.15-2.6.22-5.13.72-7.56,1.44-.17.05-.35.1-.51.16-.17.05-.35.1-.51.16t.03-.03s.02-.02.03-.03c.02-.02.03-.03.05-.05.04-.04.09-.09.16-.16.06-.06.13-.13.21-.2.16-.15.35-.33.58-.53,0,0,.03-.02.03-.03.23-.2.49-.43.79-.69.78-.66,1.78-1.46,2.98-2.32.97-.68,2.06-1.41,3.28-2.15.6-.36,1.25-.72,1.92-1.09.25-.13.51-.27.77-.4.39-.2.78-.4,1.19-.6.41-.19.82-.39,1.24-.58.4-.17.8-.35,1.22-.51.22-.09.43-.17.66-.26.27-.1.53-.21.8-.3.18-.07.37-.14.56-.2.4-.14.8-.28,1.22-.41.03-.02.06-.03.09-.03.53-.16,1.07-.32,1.61-.47.4-.11.79-.21,1.2-.3,1.01-.24,2.05-.45,3.12-.61.39-.06.78-.11,1.18-.16.08,0,.16-.02.23-.03.44-.05.89-.09,1.34-.13h0c4.18-.13,10.67.22,17.98,2.89,8.65,3.17,14.03,8.44,17.36,12.27,1.29,1.48,2.69,2.96,3.74,4.61,1.92,3.02,4.1,6.91,5.49,11.72,0,0,2.4,8.34,2.4,17.04Z"/>
      <path id="Obliview-4" data-name="Obliview" class="cls-4" d="M23.2,60.34c-.02.36-.03.73-.03,1.1,0,1.65.1,3.27.31,4.86,0,.02,0,.03,0,.05v.04c2.23,24.59,17.01,45.57,37.87,56.48-15.23-.02-29.16-5.58-39.89-14.78C8.19,96.72-.17,79.76,0,60.84.3,29.35,24.71,3.31,55.45.3h0c1.98-.21,3.99-.3,6.01-.3,9.64,0,18.77,2.23,26.89,6.19-3.38-.85-21.87-5.11-39.49,6.12-12.5,7.97-16.61,22.22-18.35,26.59-4.42,6.03-7.1,13.4-7.32,21.39v.04Z"/>
      <g>
        <path class="cls-2" d="M199.09,74.73c0,20.35-9.68,31.24-32.78,31.24-10.34,0-20.02-1.98-29.15-6.16V21.27h11.77v32.45c6.16-7.26,13.86-10.45,23.98-10.45,17.16,0,26.18,11.22,26.18,31.46ZM187.1,74.84c0-13.53-4.95-21.12-17.82-21.12-9.57,0-15.84,5.06-20.35,12.43v26.73c5.94,1.76,12.43,2.64,18.04,2.86,13.86,0,20.13-7.26,20.13-20.9Z"/>
        <path class="cls-2" d="M212.73,21.27h11.66v83.6h-11.66V21.27Z"/>
        <path class="cls-2" d="M239.46,27.76c0-4.18,2.53-6.71,7.7-6.71s7.7,2.53,7.7,6.71-2.64,6.82-7.7,6.82-7.7-2.53-7.7-6.82ZM241.33,44.37h11.66v60.5h-11.66v-60.5Z"/>
        <path class="cls-1" d="M329.22,44.37l-23.76,60.5h-18.81l-23.76-60.5h12.54l18.92,50.38h3.52l18.92-50.38h12.43Z"/>
        <path class="cls-1" d="M337.25,27.76c0-4.18,2.53-6.71,7.7-6.71s7.7,2.53,7.7,6.71-2.64,6.82-7.7,6.82-7.7-2.53-7.7-6.82ZM339.12,44.37h11.66v60.5h-11.66v-60.5Z"/>
        <path class="cls-1" d="M424.37,79.02h-47.85c1.43,10.89,8.36,15.84,20.24,15.84h23.1l-1.54,10.01h-21.56c-21.01,0-32.45-9.9-32.45-30.25s10.78-31.35,30.58-31.35,29.48,8.58,29.48,29.59v6.16ZM412.6,69.78c0-11.88-5.94-16.61-17.71-16.61s-17.27,4.73-18.37,16.61h36.08Z"/>
        <path class="cls-1" d="M537.34,44.37l-17.71,60.5h-21.12l-13.53-49.28-13.75,49.28h-21.12l-17.6-60.5h12.54l13.86,50.38h4.07l13.75-50.38h16.5l13.64,50.38h4.07l13.97-50.38h12.43Z"/>
      </g>
    </g>
  </g>
</svg>