<?xml version="1.0" encoding="UTF-8"?>
<svg id="Calque_2" data-name="Calque 2" xmlns="http://www.w3.org/2000/svg" xmlns:xlink="http://www.w3.org/1999/xlink" viewBox="0 0 586.35 139.94">
  <defs>
    <style>
      .cls-1 {
        font-family: FONTSPRINGDEMO-NizzoliSemiBoldRegular, 'FONTSPRING DEMO - Nizzoli SemiBold';
        font-size: 110px;
      }

      .cls-2 {
        fill: #488cca;
      }

      .cls-3 {
        fill: #a5d1ec;
      }

      .cls-4 {
        fill: url(#Dégradé_sans_nom_303);
      }

      .cls-5 {
        fill: url(#Dégradé_sans_nom_303-2);
      }
    </style>
    <linearGradient id="Dégradé_sans_nom_303" data-name="Dégradé sans nom 303" x1="90.15" y1="16.15" x2="56.35" y2="120.97" gradientUnits="userSpaceOnUse">
      <stop offset="0" stop-color="#75d1f5"/>
      <stop offset=".05" stop-color="#73cff3"/>
      <stop offset=".49" stop-color="#6cc2e9"/>
      <stop offset=".57" stop-color="#5ab2de"/>
      <stop offset=".86" stop-color="#1977b8"/>
      <stop offset="1" stop-color="#0061a9"/>
    </linearGradient>
    <linearGradient id="Dégradé_sans_nom_303-2" data-name="Dégradé sans nom 303" x1="20.66" y1="114.33" x2="63.21" y2="-2.64" xlink:href="#Dégradé_sans_nom_303"/>
  </defs>
  <g id="Layer_1" data-name="Layer 1">
    <path class="cls-4" d="M122.88,61.44c0,33.93-27.51,61.44-61.44,61.44h-.08c-20.87-10.92-35.66-31.91-37.87-56.52,2.47,19.24,19.25,33.99,39.34,33.23,19.73-.75,35.83-16.78,36.66-36.5.65-15.47-7.91-29.02-20.65-35.6-.33-.17-.66-.34-1-.49-.66-.33-1.33-.62-2.02-.91-4.46-1.82-9.35-2.83-14.47-2.83-1.13,0-2.25.05-3.36.15-2.6.22-5.13.72-7.56,1.44-.17.05-.35.1-.51.16-.17.05-.35.1-.51.16t.03-.03s.02-.02.03-.03c.02-.02.03-.03.05-.05.04-.04.09-.09.16-.16.06-.06.13-.13.21-.2.16-.15.35-.33.58-.53,0,0,.03-.02.03-.03.23-.2.49-.43.79-.69.78-.66,1.78-1.46,2.98-2.32.97-.68,2.06-1.41,3.28-2.15.6-.36,1.25-.72,1.92-1.09.25-.13.51-.27.77-.4.39-.2.78-.4,1.19-.6.41-.19.82-.39,1.24-.58.4-.17.8-.35,1.22-.51.22-.09.43-.17.66-.26.27-.1.53-.21.8-.3.18-.07.37-.14.56-.2.4-.14.8-.28,1.22-.41.03-.02.06-.03.09-.03.53-.16,1.07-.32,1.61-.47.4-.11.79-.21,1.2-.3,1.01-.24,2.05-.45,3.12-.61.39-.06.78-.11,1.18-.16.08,0,.16-.02.23-.03.44-.05.89-.09,1.34-.13h0c4.18-.13,10.67.22,17.98,2.89,8.65,3.17,14.03,8.44,17.36,12.27,1.29,1.48,2.69,2.96,3.74,4.61,1.92,3.02,4.1,6.91,5.49,11.72,0,0,2.4,8.34,2.4,17.04Z"/>
    <path class="cls-5" d="M23.2,60.34c-.02.36-.03.73-.03,1.1,0,1.65.1,3.27.31,4.86,0,.02,0,.03,0,.05v.04c2.23,24.59,17.01,45.57,37.87,56.48-15.23-.02-29.16-5.58-39.89-14.78C8.19,96.72-.17,79.76,0,60.84.3,29.35,24.71,3.31,55.45.3h0c1.98-.21,3.99-.3,6.01-.3,9.64,0,18.77,2.23,26.89,6.19-3.38-.85-21.87-5.11-39.49,6.12-12.5,7.97-16.61,22.22-18.35,26.59-4.42,6.03-7.1,13.4-7.32,21.39v.04Z"/>
    <text class="cls-1" transform="translate(129.02 104.87)"><tspan class="cls-2" x="0" y="0">bli</tspan><tspan class="cls-3" x="132.44" y="0">view</tspan></text>
  </g>
</svg>