<?xml version="1.0" encoding="UTF-8"?>
<svg id="Calque_2" data-name="Calque 2" xmlns="http://www.w3.org/2000/svg" xmlns:xlink="http://www.w3.org/1999/xlink" viewBox="0 0 537.34 122.88">
  <defs>
    <style>
      .cls-1 {
        fill: #2885e2;
      }

      .cls-2 {
        fill: #fff;
      }

      .cls-3 {
        fill: url(#Dégradé_sans_nom_4391-3);
      }

      .cls-4 {
        fill: #2941ec;
      }

      .cls-5 {
        fill: #255fec;
      }

      .cls-6 {
        fill: url(#Dégradé_sans_nom_4391-4);
      }

      .cls-7 {
        fill: #2f90e8;
      }

      .cls-8 {
        fill: #3750ee;
      }

      .cls-9 {
        fill: url(#Dégradé_sans_nom_4391-5);
      }

      .cls-10 {
        fill: #00d4ff;
      }

      .cls-11 {
        fill: #2653ec;
      }

      .cls-12 {
        fill: url(#Dégradé_sans_nom_4391-2);
      }

      .cls-13 {
        fill: url(#Dégradé_sans_nom_4391);
      }

      .cls-14 {
        fill: #2560eb;
      }

      .cls-15 {
        fill: url(#Dégradé_sans_nom_4371);
      }

      .cls-16 {
        fill: #3389e9;
      }

      .cls-17 {
        fill: url(#Dégradé_sans_nom_4765);
      }
    </style>
    <linearGradient id="Dégradé_sans_nom_4391" data-name="Dégradé sans nom 4391" x1="72.96" y1="74.56" x2="49.93" y2="104.76" gradientUnits="userSpaceOnUse">
      <stop offset=".17" stop-color="#00d4ff"/>
      <stop offset=".22" stop-color="#02c8fe"/>
      <stop offset=".6" stop-color="#1473f9"/>
      <stop offset=".87" stop-color="#203ef7"/>
      <stop offset="1" stop-color="#252af6"/>
    </linearGradient>
    <linearGradient id="Dégradé_sans_nom_4391-2" data-name="Dégradé sans nom 4391" x1="106.95" y1="24.82" x2="85.64" y2="52.75" xlink:href="#Dégradé_sans_nom_4391"/>
    <linearGradient id="Dégradé_sans_nom_4371" data-name="Dégradé sans nom 4371" x1="20.66" y1="114.33" x2="63.21" y2="-2.64" gradientUnits="userSpaceOnUse">
      <stop offset="0" stop-color="#00d4ff"/>
      <stop offset=".12" stop-color="#02c9fe"/>
      <stop offset=".32" stop-color="#08adfc"/>
      <stop offset=".58" stop-color="#127ffa"/>
      <stop offset=".9" stop-color="#2040f7"/>
      <stop offset="1" stop-color="#252af6"/>
    </linearGradient>
    <linearGradient id="Dégradé_sans_nom_4391-3" data-name="Dégradé sans nom 4391" x1="101.33" y1="75.68" x2="86.79" y2="100.86" xlink:href="#Dégradé_sans_nom_4391"/>
    <linearGradient id="Dégradé_sans_nom_4765" data-name="Dégradé sans nom 4765" x1="108.32" y1="26.88" x2="66.98" y2="115.16" gradientUnits="userSpaceOnUse">
      <stop offset=".08" stop-color="#1449ff"/>
      <stop offset=".56" stop-color="#7f1cf1"/>
      <stop offset=".69" stop-color="#5c2af1"/>
      <stop offset="1" stop-color="#064ef4"/>
    </linearGradient>
    <linearGradient id="Dégradé_sans_nom_4391-4" data-name="Dégradé sans nom 4391" x1="96.71" y1="83.65" x2="91.43" y2="92.79" xlink:href="#Dégradé_sans_nom_4391"/>
    <linearGradient id="Dégradé_sans_nom_4391-5" data-name="Dégradé sans nom 4391" x1="98.08" y1="81.27" x2="89.99" y2="95.28" xlink:href="#Dégradé_sans_nom_4391"/>
  </defs>
  <g id="Obliview">
    <g id="Obliview-2" data-name="Obliview">
      <path class="cls-13" d="M108.85,100.52c-1.87,2.27-3.91,4.4-6.08,6.38-.12.1-.23.21-.35.31-.17.15-.34.29-.5.44-.41.36-.83.72-1.26,1.08-.1.08-.2.17-.31.25-.4.33-.81.66-1.22.98-.52.4-1.04.79-1.57,1.18-.4.29-.81.58-1.22.86-.09.07-.18.13-.26.19-1.45.99-2.96,1.93-4.5,2.79-.53.3-1.06.59-1.6.87-.08.04-.15.08-.23.12-.98.51-1.96,1-2.97,1.45-.36.16-.72.32-1.08.48-.51.21-1.02.42-1.52.63-.85.33-1.72.66-2.59.96-.44.15-.88.3-1.33.44-.44.15-.89.29-1.34.42-.38.11-.76.22-1.15.33-.09.02-.19.05-.28.08-.43.11-.87.22-1.3.33-.46.11-.92.22-1.39.32-1.12.25-2.25.47-3.4.65-.05,0-.1.02-.16.03-1.48.24-2.98.43-4.5.56-.24.02-.48.04-.73.05-.24.02-.48.04-.72.05h-.04c-.9.06-1.81.1-2.74.11-.36.02-.72.02-1.08.02h-.08c-.56-.29-1.11-.59-1.66-.9-.12-.06-.25-.13-.37-.21-.02-.01-.04-.02-.06-.03-.39-.22-.77-.44-1.15-.67-.28-.16-.54-.32-.81-.49-.28-.16-.56-.34-.83-.51-.03-.02-.05-.03-.07-.04-.11-.07-.22-.14-.33-.21-.14-.09-.28-.18-.42-.27h0c-.08-.05-.15-.1-.22-.14-.11-.08-.22-.15-.33-.23-.12-.08-.25-.16-.37-.24-.22-.14-.43-.29-.65-.44-.09-.06-.17-.11-.25-.17h0s-.02-.02-.02-.02c-.38-.26-.76-.52-1.13-.8-.04-.03-.09-.06-.13-.09-.17-.12-.34-.25-.51-.38-.09-.06-.17-.13-.26-.19-.18-.13-.36-.26-.53-.4-.24-.18-.48-.36-.71-.54-.5-.39-1-.79-1.48-1.19-.25-.21-.51-.42-.76-.64-.04-.03-.07-.06-.1-.09-.2-.16-.39-.32-.58-.5-.16-.13-.33-.28-.49-.43-.06-.04-.12-.1-.18-.15-.27-.25-.55-.49-.81-.74-.03-.02-.05-.04-.08-.08-.24-.21-.48-.44-.72-.67-.3-.28-.59-.56-.88-.86-.27-.25-.54-.52-.8-.79-.22-.21-.43-.43-.62-.64-.25-.25-.48-.5-.72-.75-.06-.06-.11-.11-.16-.17-.45-.48-.89-.97-1.33-1.47-.01-.01-.03-.03-.04-.05-.01,0-.02-.02-.03-.04-.34-.38-.67-.76-.98-1.15-.26-.3-.51-.6-.75-.9-.23-.28-.45-.56-.66-.84-.33-.4-.65-.81-.95-1.23-.15-.19-.3-.38-.43-.58-.19-.25-.38-.51-.56-.77-.13-.16-.24-.32-.35-.49-.04-.05-.08-.1-.11-.15-.05-.06-.1-.13-.14-.21-.16-.22-.32-.45-.47-.68-.19-.27-.37-.54-.55-.82-.16-.23-.31-.47-.46-.71-.09-.14-.19-.29-.28-.44-.25-.38-.49-.77-.72-1.17-.08-.13-.16-.26-.23-.39-.4-.65-.77-1.31-1.14-1.98-.28-.51-.55-1.02-.82-1.54-.16-.29-.31-.59-.46-.9-.24-.47-.47-.94-.69-1.42-.05-.08-.09-.17-.13-.26-.1-.21-.2-.42-.29-.64-.06-.11-.11-.22-.15-.33-.05-.09-.09-.18-.12-.28-.09-.17-.17-.35-.24-.53-.04-.08-.07-.17-.11-.25-.08-.16-.15-.33-.21-.51-.05-.11-.1-.23-.14-.34-.06-.13-.11-.26-.17-.4-.04-.06-.06-.13-.08-.2-.07-.15-.13-.31-.19-.47-.05-.09-.09-.19-.12-.29-.02-.05-.05-.11-.06-.16-.02-.02-.03-.05-.03-.08-.16-.38-.3-.77-.44-1.16-.09-.22-.17-.45-.25-.68-.12-.34-.24-.68-.35-1.02-.04-.09-.07-.19-.09-.28-.09-.26-.18-.53-.26-.79h0c-.16-.49-.31-.97-.45-1.45-.04-.12-.08-.24-.11-.36-.05-.16-.1-.33-.14-.5-.11-.38-.22-.76-.31-1.14-.11-.38-.21-.77-.3-1.16-.01-.03-.02-.07-.03-.11h0c-.02-.07-.04-.12-.05-.18-.02-.06-.03-.13-.04-.2-.09-.34-.17-.7-.25-1.05-.02-.11-.04-.22-.07-.34-.02-.09-.04-.18-.06-.28-.01-.05-.02-.09-.03-.14-.11-.47-.2-.94-.29-1.41,0-.04-.01-.07-.02-.11-.02-.11-.04-.22-.06-.33-.06-.31-.11-.62-.16-.93-.05-.27-.1-.53-.13-.8-.03-.18-.06-.36-.08-.54-.04-.15-.06-.3-.07-.45-.08-.48-.14-.96-.2-1.44-.1-.77-.18-1.53-.25-2.3.06.45.12.9.2,1.34.05.3.1.59.16.88.07.41.16.82.25,1.23h0c.11.48.22.95.34,1.41.12.43.24.85.37,1.27.1.37.22.74.35,1.1.13.39.27.78.41,1.17,0,.01,0,.02.01.03.17.45.35.9.53,1.34.05.12.11.25.16.38.19.44.39.88.59,1.31.02.03.04.07.06.12.21.42.42.84.64,1.25.31.59.63,1.18.97,1.75.27.45.55.89.83,1.33.03.03.05.07.07.1.3.45.6.9.92,1.33.01.02.02.04.04.06.32.44.64.86.97,1.28.02.02.04.05.05.07.33.42.67.83,1.02,1.23.02.02.04.04.06.07.34.4.7.79,1.06,1.17.41.44.83.86,1.26,1.28.37.36.76.72,1.15,1.06.42.37.85.74,1.28,1.09.65.54,1.32,1.05,2.01,1.53.23.17.46.33.69.48.46.32.93.62,1.41.92s.97.58,1.46.85c1.23.69,2.51,1.31,3.82,1.85.26.11.53.22.79.32.21.09.42.17.63.24.11.04.23.09.34.13.48.18.96.34,1.45.49.28.09.55.17.83.25.83.25,1.67.46,2.52.64.56.13,1.14.24,1.71.33.29.06.58.1.87.14,2.29.34,4.65.47,7.06.38.28-.01.57-.02.85-.05,3.92-.23,7.69-1.07,11.22-2.42,2.43,2.3,5.77,4.65,10.12,6.11-.48.31-.97.62-1.48.92-4.14,2.47-8.32,3.79-12.07,4.47-.39-.66-1.11-1.1-1.94-1.1-.54,0-1.05.19-1.44.51-.5.42-.82,1.04-.82,1.74,0,1.12.81,2.05,1.89,2.22.1.03.21.04.31.04h.06c1.16,0,2.11-.87,2.24-1.99,2.7-.49,4.78-1.21,6.24-1.81,2.58-1.05,4.16-1.82,4.79-2.19.26-.15.47-.28.62-.37,1.09-.65,2.17-1.3,3.25-1.95,2.22.59,4.69.94,7.41.94,5.97,0,10.9-1.74,14.77-4.14Z"/>
      <path class="cls-12" d="M122.88,61.44c0,.45,0,.89-.02,1.34.01.01,0,.02,0,.02-.01.48-.03.96-.05,1.43-.02.57-.06,1.14-.1,1.71-.03.52-.08,1.03-.13,1.55-.08.89-.19,1.77-.32,2.65-.18,1.31-.41,2.62-.68,3.91-.09.42-.18.84-.28,1.26-.11.49-.23.99-.36,1.48-.12.49-.25.97-.39,1.46-.14.49-.28.97-.43,1.45-.15.48-.31.96-.47,1.43-.13.4-.27.79-.41,1.18-.1.3-.21.59-.33.88-.09.26-.19.51-.29.76-.15.39-.31.77-.47,1.15-.02.08-.06.16-.09.24,0,0,0-.01,0-.01-.83-1.35-2.96-4.46-6.53-7.35-.93-.76-1.96-1.5-3.09-2.19.64-2.17,1.23-4.72,1.62-7.6.31-2.31.43-4.43.45-6.33.17-.05.32-.12.47-.21.01,0,.02-.01.03-.02.62-.38,1.03-1.07,1.03-1.86,0-1.22-.99-2.2-2.2-2.2-.96,0-1.78.61-2.08,1.46-.08.23-.13.48-.13.74,0,.99.65,1.82,1.54,2.1.07,2.71-.14,5.98-.99,9.6-.3,1.28-.65,2.48-1.03,3.58-.36-.2-.73-.39-1.11-.57-.05-.03-.1-.05-.15-.07-2.28-1.09-4.9-1.93-7.87-2.34.13-.43.24-.86.35-1.29.11-.41.2-.82.29-1.23.13-.55.23-1.11.33-1.67.08-.45.15-.89.21-1.34.05-.43.11-.87.14-1.31.03-.16.04-.32.05-.48.01-.03.01-.07.01-.1.01-.13.02-.27.03-.4.03-.38.05-.77.07-1.16,0-.38.02-.76.02-1.14.02-.42.01-.84,0-1.25v-.09c0-.22-.01-.44-.02-.65h0c-.01-.29-.02-.57-.05-.84,0-.32-.03-.64-.07-.95-.02-.32-.05-.63-.09-.94-.03-.32-.07-.63-.11-.94-.04-.31-.09-.62-.14-.93-.11-.66-.23-1.32-.37-1.97-.07-.36-.16-.72-.25-1.08-.05-.2-.1-.39-.15-.59-.01-.05-.02-.1-.04-.15-.09-.37-.2-.74-.31-1.11-.06-.22-.13-.44-.21-.66-.25-.82-.54-1.63-.87-2.43-.15-.41-.32-.81-.5-1.21-.03-.08-.07-.16-.1-.25-.18-.4-.36-.8-.56-1.19-.16-.32-.31-.63-.48-.94-.06-.13-.13-.26-.21-.39-.17-.32-.35-.64-.53-.96-.21-.38-.43-.75-.66-1.11-.03-.06-.06-.11-.11-.17-.23-.38-.48-.75-.73-1.12-.28-.41-.57-.82-.86-1.22-.07-.1-.14-.19-.21-.28-.23-.31-.47-.62-.72-.92-.12-.16-.25-.32-.38-.47-.29-.37-.6-.72-.92-1.07-.35-.41-.72-.8-1.1-1.19-.01-.01-.03-.03-.04-.04-.03-.03-.06-.07-.09-.1-.05-.05-.1-.1-.15-.14-.34-.36-.7-.71-1.07-1.05-.36-.35-.73-.68-1.11-1-.67-.58-1.36-1.14-2.07-1.67-.25-.19-.5-.38-.76-.56-.12-.09-.23-.17-.35-.25-.31-.21-.62-.42-.93-.62-.35-.24-.71-.46-1.07-.68-.03-.02-.06-.04-.09-.05-.35-.21-.7-.42-1.05-.61-.37-.22-.76-.42-1.14-.62-.33-.17-.67-.33-1-.49-.66-.33-1.33-.62-2.02-.9-.39-.16-.78-.31-1.18-.45-.2-.08-.41-.15-.62-.23-.25-.09-.5-.18-.75-.26-.67-.22-1.35-.42-2.04-.6-.01,0-.02,0-.03-.01-.49-.13-.97-.25-1.47-.36-.3-.07-.6-.13-.9-.19-2.42-.48-4.92-.73-7.48-.73-1.13,0-2.25.05-3.36.14-.2.02-.4.04-.6.06-.16.01-.32.03-.48.05-.08.01-.16.02-.24.03-.38.05-.76.1-1.14.16-.71.1-1.4.23-2.09.38-.39.08-.79.17-1.17.27h-.01c-.28.07-.55.14-.82.22-.07,0-.14.02-.2.05-.28.07-.55.15-.82.23-.17.05-.34.1-.5.15-.18.05-.35.1-.51.16h.01s.01-.02.01-.03l.24-.24c.06-.06.13-.13.21-.2.08-.07.17-.16.26-.25.1-.08.21-.18.32-.28.01,0,.01-.01.02-.02.01,0,.01-.01.01-.02.24-.2.5-.43.8-.69.19-.17.4-.34.62-.52.33-.27.69-.56,1.09-.86.39-.3.82-.62,1.27-.94.08-.06.16-.11.25-.17h.01c.07-.06.13-.1.2-.15.09-.07.19-.13.29-.2.26-.17.52-.35.8-.53.27-.19.55-.37.84-.55s.59-.37.89-.55c.3-.18.61-.36.93-.54.31-.17.62-.34.93-.51.02-.01.04-.02.06-.03.12-.06.25-.13.38-.2s.26-.14.39-.2c.04-.02.08-.04.12-.06.07-.04.14-.07.22-.11.28-.14.56-.29.85-.43,0,0,.02,0,.03,0,.06-.03.12-.06.18-.09.34-.15.68-.31,1.03-.47.4-.18.81-.35,1.22-.51.17-.07.34-.14.52-.21.01-.01.03-.01.04-.01h0s.06-.03.09-.04c.27-.11.53-.21.81-.3.18-.07.37-.14.56-.2.36-.13.73-.26,1.11-.38.07-.01.13-.03.2-.06.08-.02.17-.05.25-.08h.01c.44-.14.9-.26,1.35-.39.4-.11.8-.21,1.2-.3,1.01-.24,2.05-.45,3.12-.61.39-.06.79-.12,1.18-.17.08-.01.16-.01.24-.02.44-.05.89-.1,1.33-.13h.01c.71-.02,1.48-.03,2.31-.01.53.01,1.09.02,1.67.05.31.02.62.03.94.06.62.04,1.26.1,1.92.17.27.03.54.07.82.1.06,0,.12.01.18.02.46.06.91.13,1.37.21.34.05.68.11,1.02.18.35.06.7.13,1.05.2,1.75.36,3.59.85,5.49,1.49.4.13.81.27,1.21.42.58.21,1.15.44,1.7.67.38.16.74.32,1.1.48.02.01.04.02.06.03.31.14.6.29.9.43.4.2.8.4,1.19.6.39.21.77.42,1.14.63.74.41,1.45.85,2.13,1.31.34.22.68.45,1,.68.32.23.64.45.95.69.31.22.61.45.9.69.3.23.58.47.86.7.28.23.55.47.82.7,1.86,1.63,3.37,3.24,4.61,4.66,1.3,1.49,2.69,2.96,3.75,4.62,1.92,3.02,4.09,6.91,5.48,11.72,0,0,.11.4.29,1.11.04.13.07.28.11.43.22.91.51,2.19.8,3.72.04.2.07.4.11.61.12.62.23,1.27.33,1.96.11.68.21,1.4.3,2.13.03.27.07.56.1.84.01.1.02.19.03.29.06.61.12,1.22.16,1.85.01.02.01.05.01.07,0,.03.01.06.01.09,0,.07.01.15.01.22.03.3.05.6.06.9.02.3.03.6.04.91.03.63.04,1.26.04,1.9Z"/>
      <path id="Obliview-3" data-name="Obliview" class="cls-15" d="M23.2,60.34c-.02.36-.03.73-.03,1.1,0,1.65.1,3.27.31,4.86,0,.02,0,.03,0,.05v.04c2.23,24.59,17.01,45.57,37.87,56.48-15.23-.02-29.16-5.58-39.89-14.78C8.19,96.72-.17,79.76,0,60.84.3,29.35,24.71,3.31,55.45.3h0c1.98-.21,3.99-.3,6.01-.3,9.64,0,18.77,2.23,26.89,6.19-3.38-.85-21.87-5.11-39.49,6.12-12.5,7.97-16.61,22.22-18.35,26.59-4.42,6.03-7.1,13.4-7.32,21.39v.04Z"/>
      <g>
        <path class="cls-10" d="M199.09,74.73c0,20.35-9.68,31.24-32.78,31.24-10.34,0-20.02-1.98-29.15-6.16V21.27h11.77v32.45c6.16-7.26,13.86-10.45,23.98-10.45,17.16,0,26.18,11.22,26.18,31.46ZM187.1,74.84c0-13.53-4.95-21.12-17.82-21.12-9.57,0-15.84,5.06-20.35,12.43v26.73c5.94,1.76,12.43,2.64,18.04,2.86,13.86,0,20.13-7.26,20.13-20.9Z"/>
        <path class="cls-10" d="M212.73,21.27h11.66v83.6h-11.66V21.27Z"/>
        <path class="cls-10" d="M239.46,27.76c0-4.18,2.53-6.71,7.7-6.71s7.7,2.53,7.7,6.71-2.64,6.82-7.7,6.82-7.7-2.53-7.7-6.82ZM241.33,44.37h11.66v60.5h-11.66v-60.5Z"/>
        <path class="cls-2" d="M329.22,44.37l-23.76,60.5h-18.81l-23.76-60.5h12.54l18.92,50.38h3.52l18.92-50.38h12.43Z"/>
        <path class="cls-2" d="M337.25,27.76c0-4.18,2.53-6.71,7.7-6.71s7.7,2.53,7.7,6.71-2.64,6.82-7.7,6.82-7.7-2.53-7.7-6.82ZM339.12,44.37h11.66v60.5h-11.66v-60.5Z"/>
        <path class="cls-2" d="M424.37,79.02h-47.85c1.43,10.89,8.36,15.84,20.24,15.84h23.1l-1.54,10.01h-21.56c-21.01,0-32.45-9.9-32.45-30.25s10.78-31.35,30.58-31.35,29.48,8.58,29.48,29.59v6.16ZM412.6,69.78c0-11.88-5.94-16.61-17.71-16.61s-17.27,4.73-18.37,16.61h36.08Z"/>
        <path class="cls-2" d="M537.34,44.37l-17.71,60.5h-21.12l-13.53-49.28-13.75,49.28h-21.12l-17.6-60.5h12.54l13.86,50.38h4.07l13.75-50.38h16.5l13.64,50.38h4.07l13.97-50.38h12.43Z"/>
      </g>
    </g>
    <path class="cls-3" d="M115.34,87.62c-.26-.51-6.72-12.34-21.28-12.34s-20.99,11.84-21.26,12.34l-.33.61.32.62c.25.5,6.39,12.32,21.3,12.32s21.01-11.82,21.27-12.32l.31-.62-.33-.61ZM75.53,88.26c1-1.6,4.07-5.88,9.55-8.39-2.04,2.19-3.29,5.13-3.29,8.35s1.29,6.25,3.38,8.45c-5.64-2.48-8.67-6.8-9.65-8.42ZM94.07,98.15c-5.47,0-9.92-4.46-9.92-9.92s4.45-9.93,9.92-9.93,9.92,4.46,9.92,9.93-4.45,9.92-9.92,9.92ZM102.94,96.7c2.11-2.21,3.4-5.19,3.4-8.47s-1.24-6.15-3.27-8.33c5.47,2.51,8.54,6.78,9.54,8.37-.97,1.62-4,5.96-9.67,8.43Z"/>
    <g>
      <circle class="cls-16" cx="63.3" cy="110.3" r="1"/>
      <circle class="cls-7" cx="60.02" cy="110.16" r=".74"/>
      <circle class="cls-1" cx="56.92" cy="109.93" r=".63"/>
      <circle class="cls-1" cx="53.85" cy="109.44" r=".58"/>
      <circle class="cls-4" cx="109.34" cy="54.64" r="1"/>
      <circle class="cls-11" cx="108.84" cy="51.25" r=".74"/>
      <circle class="cls-5" cx="107.9" cy="48.05" r=".63"/>
      <path class="cls-14" d="M107.54,45.63c0,.32-.26.58-.58.58s-.58-.26-.58-.58.26-.58.58-.58.58.26.58.58Z"/>
    </g>
    <path class="cls-17" d="M69.53,108.8c.5,0,.91.41.91.91s-.41.92-.91.92-.91-.41-.91-.92.41-.91.91-.91Z"/>
    <path class="cls-6" d="M98.06,84.77c-.33.47-.72.97-1.19,1.48-.3.33-.6.63-.9.9-.16-1.1.01-3.05.01-3.05.03-.04.38-.35.86-.37-.8-.5-1.76-.79-2.77-.79-2.92,0-5.28,2.37-5.28,5.28s2.36,5.28,5.28,5.28,5.28-2.37,5.28-5.28c0-1.32-.49-2.52-1.29-3.45ZM91.31,90.28s.43-.61.92-.8v1.75c-.7-.35-.92-.95-.92-.95ZM92.22,88.82s-1,.43-1.2.83l-.1-1.81h1.34l-.05.98ZM94.74,91.73c-.25.04-.53.07-.82.08-.16,0-.31,0-.46,0,0-.06-.01-.12-.02-.18-.01-.25-.02-.49-.02-.72,0-.57.01-1.14.01-1.72l1.3-.29v2.83ZM94.74,87.79s-.05.62-1.3.62l-.02-2.44h1.32v1.82ZM97.21,90.15c-.09.19-.25.47-.5.74-.3.31-.6.49-.81.59l.07-3.41c.17-.09.38-.21.59-.39.33-.28.53-.58.65-.79v3.26Z"/>
    <path class="cls-9" d="M101.78,87.52c-.14-1.54-.72-2.95-1.64-4.1.1-.13.15-.27.15-.44,0-.42-.34-.76-.75-.76-.15,0-.3.05-.42.13-1.17-1-2.64-1.67-4.25-1.83-.05-.37-.36-.66-.75-.66s-.7.29-.74.65c-3.94.35-7.04,3.67-7.04,7.7,0,1.89.68,3.62,1.81,4.97-.12.13-.18.3-.18.48,0,.42.34.76.76.76.19,0,.36-.07.49-.19,1.33,1.08,3.02,1.72,4.86,1.72,4,0,7.3-3.05,7.7-6.95.37-.06.64-.37.64-.75s-.27-.68-.63-.74ZM101.48,89c-.39,3.75-3.56,6.68-7.41,6.68-1.77,0-3.4-.62-4.68-1.66.06-.1.09-.22.09-.35,0-.42-.34-.75-.76-.75-.13,0-.25.03-.35.09-1.09-1.3-1.75-2.97-1.75-4.79,0-3.87,2.98-7.08,6.77-7.42.07.33.38.58.73.58s.66-.25.74-.58c1.54.16,2.94.79,4.06,1.75-.09.13-.14.27-.14.43,0,.42.34.75.76.75.15,0,.29-.04.4-.12.86,1.1,1.43,2.44,1.56,3.91-.34.07-.59.38-.59.74s.25.66.58.74Z"/>
    <path class="cls-8" d="M110.73,59.7c0,.5-.41.9-.91.9s-.9-.4-.9-.9.4-.9.9-.9.91.4.91.9Z"/>
  </g>
</svg>